<?xml version="1.0" encoding="utf-8"?><svg viewBox="0 0 640 832" xmlns="http://www.w3.org/2000/svg" xmlns:xlink="http://www.w3.org/1999/xlink"><style>:root>svg{display:none}:root>svg:target{display:block}</style><svg viewBox="0 0 24 24" id="arrow-type-1" xmlns="http://www.w3.org/2000/svg"><path d="M12.6 12L8 7.4 9.4 6l6 6-6 6L8 16.6l4.6-4.6z"/></svg><svg viewBox="0 0 14 14" id="arrow-type-2" xmlns="http://www.w3.org/2000/svg"><path fill-rule="evenodd" clip-rule="evenodd" d="M10.199 2.227H3.812V0H14v10.188h-2.227V3.8L1.574 14 0 12.426l10.199-10.2z"/></svg><svg viewBox="0 0 30 30" id="close" xmlns="http://www.w3.org/2000/svg"><path fill-rule="evenodd" clip-rule="evenodd" d="M6.952 6.951a1.2 1.2 0 011.697 0L15 13.303l6.352-6.352a1.2 1.2 0 111.697 1.698L16.697 15l6.352 6.352a1.2 1.2 0 11-1.697 1.697L15 16.697 8.65 23.05a1.2 1.2 0 11-1.697-1.697L13.303 15 6.952 8.649a1.2 1.2 0 010-1.698z"/></svg><svg viewBox="0 0 640 480" id="flag-en" xmlns="http://www.w3.org/2000/svg"><path fill="#012169" d="M0 0h640v480H0z"/><path fill="#FFF" d="M75 0l244 181L562 0h78v62L400 241l240 178v61h-80L320 301 81 480H0v-60l239-178L0 64V0z"/><path fill="#C8102E" d="M424 281l216 159v40L369 281zm-184 20l6 35L54 480H0zM640 0v3L391 191l2-44L590 0zM0 0l239 176h-60L0 42z"/><path fill="#FFF" d="M241 0v480h160V0zM0 160v160h640V160z"/><path fill="#C8102E" d="M0 193v96h640v-96zM273 0v480h96V0z"/></svg><svg viewBox="0 0 640 480" id="flag-uk" xmlns="http://www.w3.org/2000/svg"><g fill-rule="evenodd" stroke-width="1pt"><path fill="gold" d="M0 0h640v480H0z"/><path fill="#0057b8" d="M0 0h640v240H0z"/></g></svg><svg viewBox="0 0 30 30" id="menu-open" xmlns="http://www.w3.org/2000/svg"><path d="M6 10h18v2H6v-2zM6 14h13v2H6v-2zM6 18h18v2H6v-2z"/></svg><svg viewBox="0 0 24 24" id="play-btn" xmlns="http://www.w3.org/2000/svg"><path d="M12 0C5.373 0 0 5.373 0 12s5.373 12 12 12 12-5.373 12-12S18.627 0 12 0zm4.014 12.835L8.95 16.913a.964.964 0 01-1.446-.835V7.922a.964.964 0 011.446-.835l7.064 4.078a.964.964 0 010 1.67z"/></svg><svg viewBox="0 0 140 832" id="triangle-bg" xmlns="http://www.w3.org/2000/svg"><path d="M140 340L0 832V0l140 340z"/></svg></svg>