<svg width="168" height="42" viewBox="0 0 168 42" fill="none" xmlns="http://www.w3.org/2000/svg">
<path d="M168 20.957L154.47 41.914V34.1521L163.727 20.957L154.47 7.76182V0L168 20.957Z" fill="#0277fe"/>
<path d="M146.89 32.4495C145.491 32.4495 144.145 32.2534 142.85 31.8612C141.576 31.446 140.564 30.95 139.812 30.3732L141.315 27.0858C142.067 27.6164 142.965 28.0547 144.009 28.4008C145.053 28.7468 146.097 28.9198 147.141 28.9198C148.373 28.9198 149.26 28.7353 149.803 28.3661C150.367 27.997 150.649 27.501 150.649 26.8781C150.649 26.3706 150.461 25.9899 150.085 25.7362C149.709 25.4593 149.218 25.2517 148.613 25.1133C148.007 24.9749 147.329 24.848 146.577 24.7326C145.846 24.6173 145.105 24.4673 144.353 24.2828C143.623 24.0751 142.954 23.7868 142.349 23.4176C141.743 23.0255 141.253 22.5064 140.877 21.8604C140.501 21.2145 140.313 20.3609 140.313 19.2997C140.313 18.1231 140.616 17.108 141.221 16.2544C141.827 15.3778 142.673 14.7087 143.758 14.2473C144.865 13.7629 146.17 13.5206 147.673 13.5206C148.801 13.5206 149.939 13.6591 151.087 13.9359C152.236 14.2127 153.186 14.6049 153.937 15.1125L152.434 18.3999C151.64 17.8693 150.837 17.5117 150.022 17.3272C149.229 17.1195 148.435 17.0157 147.642 17.0157C146.452 17.0157 145.564 17.2118 144.98 17.604C144.416 17.9962 144.134 18.4922 144.134 19.092C144.134 19.6457 144.322 20.061 144.698 20.3378C145.074 20.6146 145.564 20.8338 146.17 20.9953C146.775 21.1568 147.444 21.2952 148.174 21.4106C148.926 21.5028 149.667 21.6528 150.398 21.8604C151.129 22.068 151.797 22.3564 152.403 22.7255C153.029 23.0716 153.53 23.5676 153.906 24.2136C154.282 24.8595 154.47 25.7016 154.47 26.7397C154.47 27.8932 154.157 28.8968 153.53 29.7503C152.925 30.6039 152.058 31.273 150.931 31.7574C149.803 32.2188 148.456 32.4495 146.89 32.4495Z" fill="#0277fe"/>
<path d="M130.865 13.5206C132.145 13.5206 133.286 13.8127 134.286 14.397C135.306 14.9812 136.107 15.8809 136.687 17.0961C137.267 18.2879 137.557 19.8303 137.557 21.7232V32.4495H133.806V22.284C133.806 20.6248 133.466 19.3863 132.786 18.5683C132.125 17.7504 131.195 17.3415 129.994 17.3415C129.114 17.3415 128.334 17.5518 127.654 17.9724C126.973 18.3931 126.443 19.024 126.063 19.8653C125.703 20.6832 125.523 21.7232 125.523 22.9851V32.4495H121.772V13.731H125.343V18.7787L124.713 17.2363C125.273 16.0445 126.083 15.1331 127.144 14.5021C128.224 13.8478 129.464 13.5206 130.865 13.5206Z" fill="#0277fe"/>
<path d="M114.823 32.2073V28.47L114.611 27.674V21.1337C114.611 19.8649 114.279 18.8844 113.614 18.1923C112.949 17.4771 111.942 17.1195 110.592 17.1195C109.685 17.1195 108.789 17.281 107.902 17.604C107.036 17.927 106.3 18.3769 105.696 18.9536L104.215 15.8046C105.081 15.0432 106.109 14.478 107.298 14.1089C108.507 13.7167 109.756 13.5206 111.045 13.5206C113.382 13.5206 115.186 14.1666 116.455 15.4585C117.744 16.7274 118.389 18.6998 118.389 21.376V32.2073H114.823ZM109.746 32.4495C108.537 32.4495 107.479 32.2188 106.572 31.7574C105.666 31.273 104.96 30.6155 104.457 29.785C103.973 28.9314 103.731 27.974 103.731 26.9127C103.731 25.8746 103.943 24.9403 104.366 24.1097C104.809 23.2792 105.525 22.6217 106.512 22.1373C107.499 21.6528 108.809 21.4106 110.441 21.4106H115.125V24.2828H110.713C109.423 24.2828 108.557 24.525 108.114 25.0095C107.67 25.4709 107.449 26.0476 107.449 26.7397C107.449 27.5241 107.721 28.147 108.265 28.6084C108.809 29.0698 109.564 29.3005 110.531 29.3005C111.458 29.3005 112.284 29.0582 113.01 28.5738C113.755 28.0893 114.289 27.3741 114.611 26.4283L115.246 29.0236C114.883 30.1079 114.229 30.95 113.282 31.5498C112.355 32.1496 111.176 32.4495 109.746 32.4495Z" fill="#0277fe"/>
<path d="M94.7114 32.4495V13.731H98.1852V18.8838L97.7765 17.3765C98.2436 16.1146 98.9734 15.1565 99.9659 14.5021C100.978 13.8478 102.233 13.5206 103.732 13.5206V17.692C103.576 17.6453 103.43 17.6219 103.294 17.6219C103.158 17.5985 103.021 17.5868 102.885 17.5868C101.503 17.5868 100.404 18.0776 99.5866 19.0591C98.7692 20.0172 98.3603 21.4544 98.3603 23.3707V32.4495H94.7114Z" fill="#0277fe"/>
<path d="M81.462 32.4495V10.7972H74.416V6.76031H92.4563V10.7972H85.4103V32.4495H81.462Z" fill="#0277fe"/>
<path d="M66.5964 13.5206C67.8769 13.5206 69.0172 13.8127 70.0176 14.397C71.0379 14.9812 71.8382 15.8809 72.4184 17.0961C72.9986 18.2879 73.2886 19.8303 73.2886 21.7232V32.4495H69.5374V22.284C69.5374 20.6248 69.1973 19.3863 68.5171 18.5683C67.8568 17.7504 66.9265 17.3415 65.7261 17.3415C64.8458 17.3415 64.0656 17.5518 63.3854 17.9724C62.7051 18.3931 62.175 19.024 61.7948 19.8653C61.4347 20.6832 61.2547 21.7232 61.2547 22.9851V32.4495H57.5034V13.731H61.0746V18.7787L60.4444 17.2363C61.0046 16.0445 61.8148 15.1331 62.8752 14.5021C63.9556 13.8478 65.196 13.5206 66.5964 13.5206Z" fill="#37434F"/>
<path d="M46.8641 32.4495C45.1487 32.4495 43.6454 32.0458 42.354 31.2384C41.082 30.4078 40.0894 29.2774 39.3762 27.8471C38.6824 26.4167 38.3354 24.7903 38.3354 22.9678C38.3354 21.1222 38.6727 19.4957 39.3473 18.0885C40.0412 16.6581 40.9856 15.5393 42.1806 14.7318C43.3948 13.9244 44.7729 13.5206 46.3148 13.5206C47.8182 13.5206 49.1577 13.9128 50.3334 14.6972C51.5091 15.4816 52.4342 16.5889 53.1088 18.0193C53.7834 19.4496 54.1207 21.1337 54.1207 23.0716C54.1207 23.2562 54.111 23.4638 54.0918 23.6945C54.0918 23.9252 54.0821 24.1443 54.0629 24.352H41.1976V21.4798H52.1548L50.7381 22.3795C50.7574 21.3183 50.5743 20.3839 50.1888 19.5765C49.8034 18.769 49.2733 18.1346 48.5987 17.6732C47.9434 17.2118 47.1821 16.9811 46.3148 16.9811C45.4282 16.9811 44.6476 17.2118 43.973 17.6732C43.3177 18.1346 42.7973 18.7806 42.4119 19.6111C42.0457 20.4185 41.8626 21.376 41.8626 22.4833V23.1754C41.8626 24.2828 42.0746 25.2632 42.4986 26.1168C42.9226 26.9704 43.5201 27.6279 44.291 28.0893C45.062 28.5507 45.9486 28.7814 46.9508 28.7814C47.8182 28.7814 48.5987 28.6199 49.2926 28.2969C49.9865 27.974 50.6032 27.4664 51.1429 26.7743L53.0799 29.4389C52.386 30.4078 51.5091 31.1576 50.449 31.6882C49.4082 32.1958 48.2133 32.4495 46.8641 32.4495Z" fill="#37434F"/>
<path d="M29.1244 32.6651C27.8318 32.6651 26.6486 32.3151 25.5748 31.6151C24.5209 30.9151 23.6757 29.8651 23.0394 28.4652C22.4229 27.0419 22.1147 25.2453 22.1147 23.0753C22.1147 20.8821 22.413 19.0855 23.0096 17.6855C23.626 16.2855 24.4612 15.2472 25.5151 14.5706C26.5691 13.8706 27.7722 13.5206 29.1244 13.5206C30.6954 13.5206 32.0774 13.9173 33.2706 14.7106C34.4836 15.5039 35.4381 16.6122 36.1341 18.0355C36.85 19.4588 37.2079 21.1387 37.2079 23.0753C37.2079 25.0119 36.85 26.7036 36.1341 28.1502C35.4381 29.5735 34.4836 30.6818 33.2706 31.4751C32.0774 32.2684 30.6954 32.6651 29.1244 32.6651ZM20.2952 39.2099V13.7306H23.8448V18.1405L23.7254 23.1103L24.0237 28.0802V39.2099H20.2952ZM28.7068 28.9202C29.6017 28.9202 30.3971 28.6868 31.0931 28.2202C31.809 27.7535 32.3757 27.0769 32.7933 26.1902C33.2109 25.3036 33.4197 24.2653 33.4197 23.0753C33.4197 21.862 33.2109 20.8237 32.7933 19.9604C32.3757 19.0738 31.809 18.3971 31.0931 17.9305C30.3971 17.4638 29.6017 17.2305 28.7068 17.2305C27.8119 17.2305 27.0066 17.4638 26.2907 17.9305C25.5748 18.3971 25.0081 19.0738 24.5905 19.9604C24.1729 20.8237 23.9641 21.862 23.9641 23.0753C23.9641 24.2653 24.1729 25.3036 24.5905 26.1902C25.0081 27.0769 25.5748 27.7535 26.2907 28.2202C27.0066 28.6868 27.8119 28.9202 28.7068 28.9202Z" fill="#37434F"/>
<path d="M8.44151 32.4495C6.81662 32.4495 5.37007 32.0458 4.10186 31.2384C2.83365 30.4078 1.83296 29.2774 1.09977 27.8471C0.366591 26.4167 0 24.7903 0 22.9678C0 21.1222 0.366591 19.4957 1.09977 18.0885C1.83296 16.6581 2.83365 15.5393 4.10186 14.7318C5.37007 13.9244 6.81662 13.5206 8.44151 13.5206C10.0862 13.5206 11.5427 13.9244 12.8109 14.7318C14.0989 15.5393 15.0996 16.6466 15.813 18.0539C16.5462 19.4611 16.9127 21.0991 16.9127 22.9678C16.9127 24.7903 16.5462 26.4167 15.813 27.8471C15.0996 29.2774 14.0989 30.4078 12.8109 31.2384C11.5427 32.0458 10.0862 32.4495 8.44151 32.4495ZM8.44151 28.7468C9.35304 28.7468 10.1655 28.5161 10.8788 28.0547C11.5922 27.5933 12.1471 26.9243 12.5434 26.0476C12.9595 25.171 13.1676 24.1443 13.1676 22.9678C13.1676 21.7681 12.9595 20.7415 12.5434 19.8879C12.1471 19.0113 11.5922 18.3423 10.8788 17.8809C10.1655 17.4195 9.36294 17.1888 8.47124 17.1888C7.55971 17.1888 6.74726 17.4195 6.0339 17.8809C5.34035 18.3423 4.7855 19.0113 4.36937 19.8879C3.95324 20.7415 3.74518 21.7681 3.74518 22.9678C3.74518 24.1443 3.95324 25.171 4.36937 26.0476C4.7855 26.9243 5.34035 27.5933 6.0339 28.0547C6.74726 28.5161 7.5498 28.7468 8.44151 28.7468Z" fill="#37434F"/>
</svg>
